<?xml version="1.0" standalone="no"?>
<!DOCTYPE svg PUBLIC "-//W3C//DTD SVG 1.1//EN" "http://www.w3.org/Graphics/SVG/1.1/DTD/svg11.dtd" >
<svg xmlns="http://www.w3.org/2000/svg">
<defs>
  <font id="kohn-icon-font" horiz-adv-x="1000">
    <font-face font-family="kohn-icon-font"
      units-per-em="1000" ascent="955"
      descent="45" />
    <missing-glyph horiz-adv-x="0" />
    <glyph glyph-name="address"
      unicode="&#xF101;"
      horiz-adv-x="1000" d="M989.95 696.75L871.1999999999999 788.25C864.4499999999999 792.9 854.9999999999999 797.05 845.15 800.1C835.2499999999999 803.15 825 805 816.8 805H475L515.05 555H816.8C825 555 835.2499999999999 556.85 845.0999999999999 559.9S864.4499999999999 567.15 871.1499999999999 571.7L989.8999999999997 663.3C996.65 667.8499999999999 1000 673.9 1000 680S996.65 692.1500000000001 989.95 696.75zM425 905H375C361.2 905 350 893.8 350 880V705H183.2C174.9 705 164.7 703.15 154.85 700.05C144.95 697.05 135.5 692.9 128.8 688.25L10.05 596.75C3.3 592.2 0 586.1 0 580C0 573.95 3.3 567.9 10.05 563.25L128.8 471.65C135.5 467.1 144.95 462.9 154.85 459.9C164.7 456.85 174.9 455 183.2 455H350V30C350 16.2 361.2 5 375 5H425C438.8 5 450 16.2 450 30V880C450 893.8 438.8 905 425 905z" />
    <glyph glyph-name="angle-down"
      unicode="&#xF102;"
      horiz-adv-x="625" d="M279.296875 266.9140625L13.671875 532.5390625C-4.6875 550.8984375 -4.6875 580.5859375 13.671875 598.75L57.8125 642.890625C76.171875 661.25 105.859375 661.25 124.0234375 642.890625L312.3046875 454.6093749999999L500.5859375 642.890625C518.9453125 661.25 548.6328125000001 661.25 566.796875 642.890625L610.9375 598.75C629.296875 580.390625 629.296875 550.703125 610.9375 532.5390625L345.3125 266.9140624999999C327.3437500000001 248.5546874999999 297.65625 248.5546874999999 279.296875 266.9140624999999z" />
    <glyph glyph-name="angle-left"
      unicode="&#xF103;"
      horiz-adv-x="500" d="M61.9140625 488.203125L327.5390625 753.828125C345.8984375 772.1875 375.5859375 772.1875 393.75 753.828125L437.890625 709.6875C456.25 691.328125 456.25 661.640625 437.890625 643.4765625L249.8046875 455L438.0859375 266.71875C456.4453125000001 248.3593750000001 456.4453125000001 218.671875 438.0859375 200.5078125000001L393.9453125 156.171875C375.5859375 137.8125 345.8984375 137.8125 327.734375 156.171875L62.109375 421.796875C43.5546875 440.15625 43.5546875 469.84375 61.9140625 488.203125z" />
    <glyph glyph-name="angle-right"
      unicode="&#xF104;"
      horiz-adv-x="500" d="M438.0859375 421.796875L172.4609375 156.171875C154.1015625 137.8125 124.4140625 137.8125 106.25 156.171875L62.109375 200.3125C43.75 218.671875 43.75 248.3593750000001 62.109375 266.5234375L250.3906250000001 454.8046874999999L62.109375 643.0859375C43.75 661.4453125 43.75 691.1328125 62.109375 709.296875L106.0546875 753.828125C124.4140625 772.1875 154.1015625 772.1875 172.265625 753.828125L437.890625 488.203125C456.4453125 469.84375 456.4453125 440.15625 438.0859375 421.796875z" />
    <glyph glyph-name="angle-up"
      unicode="&#xF105;"
      horiz-adv-x="625" d="M345.703125 643.0859375L611.328125 377.4609375C629.6875 359.1015625000001 629.6875 329.4140625 611.328125 311.2500000000001L567.1875 267.109375C548.828125 248.7500000000001 519.1406249999999 248.7500000000001 500.9765625 267.109375L312.5 455.1953125L124.21875 266.9140625C105.859375 248.5546875 76.171875 248.5546875 58.0078125 266.9140625L13.671875 311.0546875C-4.6875 329.4140625 -4.6875 359.1015625000001 13.671875 377.265625L279.296875 642.890625C297.65625 661.4453125 327.34375 661.4453125 345.703125 643.0859375z" />
    <glyph glyph-name="arrow-down"
      unicode="&#xF106;"
      horiz-adv-x="1000" d="M527.4024616447233 -33.6517027087748L988.5700068513117 427.5139857737804L933.7650835618653 482.3189090632269L538.3794141292985 86.9332396306603L534.879489326622 954.9962865519334L457.372401282625 954.6843569143472L460.8686126372352 87.6870695881598L66.2330597141016 482.3189090632268L11.4281364246551 427.5139857737803L472.5975383552768 -33.651702708775C487.7316959502992 -48.7858603037974 512.270160773734 -48.7858603037974 527.4024616447233 -33.651702708775z" />
    <glyph glyph-name="arrow-left"
      unicode="&#xF107;"
      horiz-adv-x="1000" d="M11.3501540152586 427.5938249072101L472.517699221847 -33.5737202993785L527.3226225112936 21.2312029900681L131.936953078727 416.6168724226348L1000 420.1167972253114L999.688070362414 497.6238852693083L132.6907830362265 494.1276739146982L527.3226225112935 888.7632268378318L472.5176992218469 943.5681501272782L11.3501540152585 482.3987481966566C-3.784003579764 467.2645906016342 -3.784003579764 442.7279825022325 11.3501540152585 427.59382490721z" />
    <glyph glyph-name="arrow-right"
      unicode="&#xF108;"
      horiz-adv-x="1000" d="M988.6498459847415 482.40060492069L527.4823007781531 943.5681501272784L472.6773774887066 888.7632268378319L868.0630469212731 493.375700681232L0 489.8757758785554L0.311929637586 412.3686878345585L867.3092169637736 415.8648991891686L472.6773774887065 21.2312029900684L527.4823007781531 -33.5737202993782L988.6498459847415 427.5956816312435C1003.7821468557308 442.7279825022327 1003.7821468557308 467.2664473256675 988.6498459847415 482.40060492069z" />
    <glyph glyph-name="arrow-up"
      unicode="&#xF109;"
      horiz-adv-x="1000" d="M472.5956816312435 943.646132536675L11.4281364246551 482.4804440541197L66.2330597141016 427.6755207646732L461.6205858707015 823.0593334732065L465.1205106733781 -45.0037134480667L542.6275987173751 -44.6917838104806L539.1313873627649 822.3055035157068L933.7650835618653 427.6736640406399L988.5700068513117 482.4785873300864L527.4024616447233 943.646132536675C512.2683040497009 958.7802901316974 487.729839226266 958.7802901316974 472.5956816312435 943.646132536675z" />
    <glyph glyph-name="bars"
      unicode="&#xF10A;"
      horiz-adv-x="875" d="M31.25 697.1875H843.75C861.009765625 697.1875 875 711.177734375 875 728.4375V806.5625C875 823.822265625 861.009765625 837.8125 843.75 837.8125H31.25C13.990234375 837.8125 0 823.822265625 0 806.5625V728.4375C0 711.177734375 13.990234375 697.1875 31.25 697.1875zM31.25 384.6875H843.75C861.009765625 384.6875 875 398.677734375 875 415.9375V494.0625C875 511.322265625 861.009765625 525.3125 843.75 525.3125H31.25C13.990234375 525.3125 0 511.322265625 0 494.0625V415.9375C0 398.677734375 13.990234375 384.6875 31.25 384.6875zM31.25 72.1875H843.75C861.009765625 72.1875 875 86.177734375 875 103.4375V181.5625C875 198.822265625 861.009765625 212.8125 843.75 212.8125H31.25C13.990234375 212.8125 0 198.822265625 0 181.5625V103.4375C0 86.177734375 13.990234375 72.1875 31.25 72.1875z" />
    <glyph glyph-name="check"
      unicode="&#xF10B;"
      horiz-adv-x="1000" d="M339.64453125 96.7890625L14.64453125 421.7890625C-4.880859375 441.314453125 -4.880859375 472.9726562499999 14.64453125 492.5L85.353515625 563.2109375C104.87890625 582.73828125 136.5390625 582.73828125 156.064453125 563.2109375L375 344.27734375L843.935546875 813.2109375C863.4609375000001 832.736328125 895.12109375 832.736328125 914.6464843750002 813.2109375L985.3554687500002 742.5C1004.880859375 722.974609375 1004.880859375 691.31640625 985.3554687500002 671.7890625L410.3554687500002 96.7871093749999C390.8281250000002 77.2617187499999 359.1699218750002 77.2617187499999 339.6445312500002 96.7890624999999z" />
    <glyph glyph-name="chevron-small-down"
      unicode="&#xF10C;"
      horiz-adv-x="1000" d="M670.9 562.05C684.45 575.45 706.3499999999999 575.45 719.8 562.05C733.3 548.65 733.4 527 719.8 513.6L524.4 322.1C510.9 308.7000000000001 489.05 308.7000000000001 475.45 322.1L280.0500000000001 513.6C266.5500000000001 526.95 266.5500000000001 548.6500000000001 280.0500000000001 562.0500000000001C293.6 575.45 315.5 575.45 328.9500000000001 562.0500000000001L500 405L670.9 562.05z" />
    <glyph glyph-name="chevron-small-left"
      unicode="&#xF10D;"
      horiz-adv-x="1000" d="M607.05 284.1C620.45 270.55 620.45 248.6500000000001 607.05 235.2000000000001C593.65 221.7000000000001 572 221.6 558.6 235.2000000000001L367.1 430.6C353.7000000000001 444.1 353.7000000000001 465.95 367.1 479.55L558.6 674.9499999999999C571.95 688.4499999999999 593.6500000000001 688.4499999999999 607.05 674.9499999999999C620.45 661.4 620.45 639.5 607.05 626.05L450 455L607.05 284.1z" />
    <glyph glyph-name="chevron-small-right"
      unicode="&#xF10E;"
      horiz-adv-x="1000" d="M550 455L392.95 626C379.55 639.5 379.55 661.3499999999999 392.95 674.9C406.35 688.4 428 688.4 441.4 674.9L632.9 479.5C646.3 465.95 646.3 444.05 632.9 430.5500000000001L441.4 235.1500000000001C428.05 221.5500000000001 406.35 221.6500000000001 392.95 235.1500000000001C379.55 248.6000000000002 379.55 270.5000000000001 392.95 284.0500000000001L550 455z" />
    <glyph glyph-name="chevron-small-up"
      unicode="&#xF10F;"
      horiz-adv-x="1000" d="M329.1 347.9500000000001C315.55 334.55 293.6500000000001 334.55 280.2 347.9500000000001C266.75 361.35 266.6 383 280.2 396.4L475.6 587.9C489.1 601.3 510.95 601.3 524.55 587.9L719.9499999999999 396.4C733.4499999999999 383.05 733.4499999999999 361.3499999999999 719.9499999999999 347.9500000000001C706.3999999999999 334.55 684.5 334.55 671 347.9500000000001L500 505L329.1 347.9500000000001z" />
    <glyph glyph-name="close"
      unicode="&#xF110;"
      horiz-adv-x="999.9999999999999" d="M999.9999999999998 896.908713692946L941.9087136929458 954.9999999999998L497.9253112033194 515.1659751037344L58.0912863070539 954.9999999999998L0 896.908713692946L439.8340248962655 457.0746887966804L0 13.091286307054L58.0912863070539 -45L497.9253112033194 398.9834024896266L941.9087136929458 -45L999.9999999999998 13.091286307054L556.0165975103733 457.0746887966804z" />
    <glyph glyph-name="cookie-bite"
      unicode="&#xF111;"
      horiz-adv-x="1000" d="M997.109375 455.3515625C860.4492187499999 457.01171875 750.0976562499999 568.02734375 750.0976562499999 705.078125C613.0468749999999 705.078125 502.0507812499999 815.41015625 500.3710937499999 952.05078125C447.1289062499999 960.13671875 392.6953124999999 951.46484375 344.6679687499999 927.01171875L209.6484374999999 858.22265625A258.244140625 258.244140625 0 0 1 96.7773437499999 745.3125L28.2226562499999 610.78125A259.072265625 259.072265625 0 0 1 3.1835937499999 452.67578125L26.7773437499999 303.7109375A258.830078125 258.830078125 0 0 1 99.3554687499999 161.2109375000001L206.3281249999999 54.2578125000001A257.8828125 257.8828125 0 0 1 348.3398437499999 -18.1249999999999L498.1640624999999 -41.8554687499999C551.8945312499999 -50.3710937499998 606.9531249999999 -41.6406249999999 655.4492187499999 -16.9335937499999L790.4687499999999 51.8359375000001A258.345703125 258.345703125 0 0 1 903.3398437499998 164.7460937500001L971.8945312499998 299.2773437500001C996.4257812499998 347.40234375 1005.1171875 401.97265625 997.109375 455.3515625000001zM343.75 236.25C309.23828125 236.25 281.25 264.23828125 281.25 298.75S309.23828125 361.25 343.75 361.25S406.25 333.26171875 406.25 298.75S378.26171875 236.25 343.75 236.25zM406.25 548.75C371.73828125 548.75 343.75 576.73828125 343.75 611.25S371.73828125 673.75 406.25 673.75S468.75 645.76171875 468.75 611.25S440.76171875 548.75 406.25 548.75zM718.75 298.75C684.23828125 298.75 656.25 326.73828125 656.25 361.25S684.23828125 423.75 718.75 423.75S781.25 395.76171875 781.25 361.25S753.26171875 298.75 718.75 298.75z" />
    <glyph glyph-name="envelope"
      unicode="&#xF112;"
      horiz-adv-x="1000" d="M981.0546875 582.34375C988.671875 588.3984375 1000 582.734375 1000 573.1640625V173.75C1000 121.9921875 958.0078125 80 906.25 80H93.75C41.9921875 80 0 121.9921875 0 173.75V572.96875C0 582.734375 11.1328125 588.203125 18.9453125 582.1484375C62.6953125 548.1640625 120.703125 505 319.921875 360.2734375C361.1328125 330.1953125 430.6640625 266.9140625 500 267.3046875C569.7265625 266.7187499999999 640.625 331.3671875 680.2734375 360.2734375C879.4921875 505 937.3046875 548.359375 981.0546875 582.34375zM500 330C545.3125 329.21875 610.546875 387.03125 643.359375 410.859375C902.5390624999998 598.9453125 922.265625 615.3515625 982.0312499999998 662.2265625C993.3593749999998 671.015625 999.9999999999998 684.6875 999.9999999999998 699.140625V736.25C999.9999999999998 788.0078125 958.0078124999998 830 906.2499999999998 830H93.75C41.9921875 830 0 788.0078125 0 736.25V699.140625C0 684.6875 6.640625 671.2109375 17.96875 662.2265625C77.734375 615.546875 97.4609375 598.9453125 356.640625 410.859375C389.453125 387.03125 454.6875 329.2187499999999 500 330z" />
    <glyph glyph-name="facebook-square"
      unicode="&#xF113;"
      horiz-adv-x="875" d="M781.25 892.5H93.75A93.75 93.75 0 0 1 0 798.75V111.25A93.75 93.75 0 0 1 93.75 17.5H361.81640625V314.98046875H238.76953125V455H361.81640625V561.71875C361.81640625 683.10546875 434.08203125 750.15625 544.765625 750.15625C597.7734375 750.15625 653.203125 740.703125 653.203125 740.703125V621.5625H592.12890625C531.953125 621.5625 513.18359375 584.21875 513.18359375 545.91796875V455H647.51953125L626.03515625 314.98046875H513.18359375V17.5H781.25A93.75 93.75 0 0 1 875 111.25V798.75A93.75 93.75 0 0 1 781.25 892.5z" />
    <glyph glyph-name="fax"
      unicode="&#xF114;"
      horiz-adv-x="1000" d="M937.5 642.5V804.12109375A62.5 62.5 0 0 1 919.1796875 848.3203125L830.80078125 936.69921875A62.5 62.5 0 0 1 786.62109375 955H312.5A62.5 62.5 0 0 1 250 892.5V17.5A62.5 62.5 0 0 1 312.5 -45H937.5A62.5 62.5 0 0 1 1000 17.5V580A62.5 62.5 0 0 1 937.5 642.5zM562.5 111.25A31.25 31.25 0 0 0 531.25 80H468.75A31.25 31.25 0 0 0 437.5 111.25V173.75A31.25 31.25 0 0 0 468.75 205H531.25A31.25 31.25 0 0 0 562.5 173.75zM562.5 361.25A31.25 31.25 0 0 0 531.25 330H468.75A31.25 31.25 0 0 0 437.5 361.25V423.75A31.25 31.25 0 0 0 468.75 455H531.25A31.25 31.25 0 0 0 562.5 423.75zM812.5 111.25A31.25 31.25 0 0 0 781.25 80H718.75A31.25 31.25 0 0 0 687.5 111.25V173.75A31.25 31.25 0 0 0 718.75 205H781.25A31.25 31.25 0 0 0 812.5 173.75zM812.5 361.25A31.25 31.25 0 0 0 781.25 330H718.75A31.25 31.25 0 0 0 687.5 361.25V423.75A31.25 31.25 0 0 0 718.75 455H781.25A31.25 31.25 0 0 0 812.5 423.75zM812.5 580H375V830H687.5V736.25A31.25 31.25 0 0 1 718.75 705H812.5zM125 705H62.5A62.5 62.5 0 0 1 0 642.5V17.5A62.5 62.5 0 0 1 62.5 -45H125A62.5 62.5 0 0 1 187.5 17.5V642.5A62.5 62.5 0 0 1 125 705z" />
    <glyph glyph-name="instagram-brands"
      unicode="&#xF115;"
      horiz-adv-x="875" d="M437.6953125 679.609375C313.4765625 679.609375 213.28125 579.4140625 213.28125 455.1953125S313.4765625 230.78125 437.6953125 230.78125S662.109375 330.9765625 662.109375 455.1953125S561.9140625 679.609375 437.6953125 679.609375zM437.6953125 309.296875C357.421875 309.296875 291.796875 374.7265625 291.796875 455.1953124999999S357.2265625 601.0937499999999 437.6953125 601.0937499999999S583.5937499999999 535.6640624999999 583.5937499999999 455.1953124999999S517.9687499999999 309.296875 437.6953125 309.296875zM723.6328125 688.7890625C723.6328125 659.6875 700.1953125 636.4453125 671.2890625 636.4453125C642.1875 636.4453125 618.9453125 659.8828125 618.9453125 688.7890625S642.3828125 741.1328125 671.2890625 741.1328125S723.6328125 717.6953125 723.6328125 688.7890625zM872.265625 635.6640625C868.9453125000001 705.78125 852.9296875000001 767.890625 801.5625000000001 819.0625C750.3906250000001 870.234375 688.2812500000001 886.25 618.1640625 889.765625C545.8984375 893.8671875 329.296875 893.8671875 257.03125 889.765625C187.109375 886.4453125 125 870.4296875 73.6328125 819.2578125S6.4453125 705.9765625 2.9296875 635.859375C-1.171875 563.59375 -1.171875 346.9921875 2.9296875 274.7265625C6.25 204.609375 22.265625 142.5 73.6328125 91.3281249999999S186.9140625 24.140625 257.03125 20.6249999999999C329.296875 16.5234374999999 545.8984375 16.5234374999999 618.1640625 20.6249999999999C688.28125 23.9453124999999 750.390625 39.9609374999999 801.5625 91.3281249999999C852.7343749999999 142.4999999999999 868.7499999999999 204.6093749999999 872.2656249999999 274.7265624999999C876.3671875 346.9921874999999 876.3671875 563.3984374999999 872.2656249999999 635.6640624999999zM778.90625 197.1875C763.671875 158.90625 734.1796875000001 129.4140625 695.703125 113.984375C638.0859375 91.1328125 501.3671875 96.40625 437.6953125 96.40625S237.109375 91.3281249999999 179.6875 113.984375C141.40625 129.21875 111.9140625 158.7109374999999 96.484375 197.1875C73.6328125 254.8046875 78.90625 391.5234375 78.90625 455.1953125S73.828125 655.78125 96.484375 713.203125C111.71875 751.484375 141.2109375 780.9765625 179.6875 796.40625C237.3046875 819.2578125 374.0234375 813.984375 437.6953125 813.984375S638.28125 819.0625 695.703125 796.40625C733.984375 781.171875 763.4765625 751.6796875 778.90625 713.203125C801.7578125 655.5859375 796.484375 518.8671875 796.484375 455.1953125S801.7578125 254.609375 778.90625 197.1875z" />
    <glyph glyph-name="map"
      unicode="&#xF116;"
      horiz-adv-x="1000" d="M972.35 769.1L672.3499999999999 919.1C658.3 926.15 641.6999999999999 926.15 627.6 919.1L346.1 778.35L65.8 871.8C50.5 876.9 33.8 874.35 20.75 864.9C7.7 855.5 0 840.4 0 824.35V174.3000000000001C0 155.35 10.7 138.0500000000001 27.65 129.6L327.65 -20.4C334.7 -23.9 342.35 -25.7 350 -25.7S365.35 -23.95 372.35 -20.4L653.85 120.3000000000001L934.15 26.85C949.4 21.85 966.15 24.4000000000001 979.2 33.8000000000001C992.25 43.1999999999999 999.95 58.3 999.95 74.3V724.4C1000 743.35 989.3 760.65 972.35 769.1zM400 693.45L600 793.45V205.3L400 105.3V693.45zM100 755L300 688.3499999999999V105.3L100 205.3V755zM900 143.65L700 210.3499999999999V793.45L900 693.45V143.65z" />
    <glyph glyph-name="maximize"
      unicode="&#xF117;"
      horiz-adv-x="1000" d="M994.9999999999998 925C989.9999999999998 935 979.9999999999998 945 969.9999999999998 950C965 955 955.0000000000002 955 950 955H650C620 955 600 935 600 905S620 855 650 855H830.0000000000001L565 590C545 570 545 540 565 520C575 510 585 505 600 505S625 510 635 520L900 785V605C900 575 919.9999999999998 555 950 555S1000 575 1000 605V905C1000 910 1000 920 994.9999999999998 925zM365 390L100 124.9999999999999V305C100 335 80 355 50 355S0 335 0 305V5C0 -1e-13 0 -10 5 -14.9999999999999C10 -24.9999999999999 20 -34.9999999999999 30 -39.9999999999999C35 -45 45 -45 50 -45H350C380 -45 400 -25.0000000000001 400 5S380 55 350 55H170L435 320C455 340 455 370 435 390S385 410 365 390z" />
    <glyph glyph-name="phone-alt"
      unicode="&#xF118;"
      horiz-adv-x="1000" d="M971.46484375 248.359375L752.71484375 342.109375A46.875 46.875 0 0 1 698.02734375 328.6328125L601.1523437499999 210.2734375A723.9453125000001 723.9453125000001 0 0 0 255.078125 556.34765625L373.4375 653.22265625A46.7578125 46.7578125 0 0 1 386.9140625 707.91015625L293.1640625 926.66015625A47.1875 47.1875 0 0 1 239.453125 953.80859375L36.328125 906.93359375A46.875 46.875 0 0 1 0 861.25C0 360.2734375 406.0546875 -45 906.25 -45A46.875 46.875 0 0 1 951.953125 -8.671875L998.828125 194.453125A47.44140625 47.44140625 0 0 1 971.46484375 248.3593750000001z" />
    <glyph glyph-name="phone"
      unicode="&#xF119;"
      horiz-adv-x="1000" d="M963.671875 906.953125L760.546875 953.828125C738.4765624999999 958.90625 715.8203125 947.3828125 706.8359375 926.6796875L613.0859375 707.9296875C604.8828125 688.7890625 610.3515625 666.328125 626.5624999999999 653.2421875L744.921875 556.3671875C674.609375 406.5625 551.7578125 281.953125 398.828125 210.2734375000001L301.953125 328.6328125000001C288.671875 344.8437500000001 266.40625 350.3125000000003 247.265625 342.1093750000001L28.515625 248.3593750000001C7.6171875 239.1796875 -3.90625 216.5234375 1.171875 194.453125L48.046875 -8.671875C52.9296875 -29.765625 71.6796875 -45 93.75 -45C593.9453125 -45 1000 360.2734375 1000 861.25C1000 883.125 984.9609375 902.0703125 963.671875 906.953125z" />
    <glyph glyph-name="sliders-h"
      unicode="&#xF11A;"
      horiz-adv-x="1000" d="M968.75 205H312.5V236.25C312.5 253.4375 298.4375 267.5 281.25 267.5H218.75C201.5625 267.5 187.5 253.4375 187.5 236.25V205H31.25C14.0625 205 0 190.9375 0 173.75V111.25C0 94.0625 14.0625 80 31.25 80H187.5V48.75C187.5 31.5625 201.5625 17.5 218.75 17.5H281.25C298.4375 17.5 312.5 31.5625 312.5 48.75V80H968.75C985.9375 80 1000 94.0625 1000 111.25V173.75C1000 190.9375 985.9375 205 968.75 205zM968.75 517.5H812.5V548.75C812.5 565.9375 798.4375 580 781.25 580H718.75C701.5625 580 687.5 565.9375 687.5 548.75V517.5H31.25C14.0625 517.5 0 503.4375 0 486.25V423.75C0 406.5625 14.0625 392.5 31.25 392.5H687.5V361.25C687.5 344.0625 701.5625 330 718.75 330H781.25C798.4375 330 812.5 344.0625 812.5 361.25V392.5H968.75C985.9375 392.5 1000 406.5625 1000 423.75V486.25C1000 503.4375 985.9375 517.5 968.75 517.5zM968.75 830H562.5V861.25C562.5 878.4375 548.4375 892.5 531.25 892.5H468.75C451.5625 892.5 437.5 878.4375 437.5 861.25V830H31.25C14.0625 830 0 815.9375 0 798.75V736.25C0 719.0625 14.0625 705 31.25 705H437.5V673.75C437.5 656.5625 451.5625 642.5 468.75 642.5H531.25C548.4375 642.5 562.5 656.5625 562.5 673.75V705H968.75C985.9375 705 1000 719.0625 1000 736.25V798.75C1000 815.9375 985.9375 830 968.75 830z" />
    <glyph glyph-name="times"
      unicode="&#xF11B;"
      horiz-adv-x="687.5" d="M474.0625 455L669.5117187499999 650.44921875C693.4960937499999 674.43359375 693.4960937499999 713.3203125 669.5117187499999 737.32421875L626.0742187499999 780.76171875C602.08984375 804.74609375 563.2031249999999 804.74609375 539.1992187499999 780.76171875L343.75 585.3125L148.30078125 780.76171875C124.31640625 804.74609375 85.4296875 804.74609375 61.42578125 780.76171875L17.98828125 737.32421875C-5.99609375 713.33984375 -5.99609375 674.453125 17.98828125 650.44921875L213.4375 455L17.98828125 259.55078125C-5.99609375 235.5664062500001 -5.99609375 196.6796875 17.98828125 172.67578125L61.42578125 129.23828125C85.41015625 105.25390625 124.31640625 105.25390625 148.30078125 129.23828125L343.75 324.6875L539.19921875 129.23828125C563.1835937499999 105.25390625 602.08984375 105.25390625 626.07421875 129.23828125L669.51171875 172.67578125C693.49609375 196.6601562499999 693.49609375 235.546875 669.51171875 259.55078125L474.0625 455z" />
    <glyph glyph-name="tools"
      unicode="&#xF11C;"
      horiz-adv-x="1000" d="M156.75 610.5C203.4 646.75 242.1 621.75 293.75 561.95C299.55 555.2 307.35 563.1 311.8 566.95C316.2 570.85 384.35 632.2 387.7 635C391 637.95 395 643.45 389.75 649.6C384.4 655.75 365.05 680.85 352.6 697.15C262.2 815.4 599.9 895.6 548.05 896.85C521.6499999999999 897.55 415.7499999999999 898.8 399.8999999999999 897.05C335.75 890.3 255.2 830.35 214.65 802.4C161.6 766.1 141.8 744.8 138.55 741.85C123.55 728.75 136.15 698.5 108.95 674.65C80.2 649.5 62.25 668.55 45.6 653.95C37.35 646.6500000000001 14.25 629.35 7.65 623.6C1 617.75 -0.2 607.9 6.6 600.05C6.6 600.05 69.8 530.25 75.1 524.05C80.35 517.95 94.65 512.6500000000001 103.45 520.5C112.3 528.3000000000001 135.05 548.1500000000001 138.85 551.65C142.75 554.95 136.35 594.7 156.75 610.5zM442.15 584.65C436.1500000000001 591.6 428.7 591.8 422.3 586.1L350.6 523.5C344.95 518.5 344.15 509.35 349.25 503.4999999999999L763.95 31.55C773.6500000000001 20.4 790.4499999999999 19.25 801.5 28.8999999999999L850 69.5500000000001C861.1 79.3000000000001 862.25 96.2000000000001 852.6 107.4499999999999L442.15 584.65zM995.1 785.5C991.4 810.2 978.6000000000003 805.05 971.95 794.6C965.3 784.05 935.9 739.5 923.8 719.3C911.8 699.3 882.1999999999999 659.75 827.0999999999999 698.8C769.6999999999999 739.3499999999999 789.6499999999999 767.65 799.65 786.6999999999999C809.6999999999999 805.8499999999999 840.55 859.55 844.9999999999999 866.1999999999999C849.4499999999998 872.9499999999999 844.2499999999999 892.55 826.45 884.35C808.6 876.15 700.3 833.0999999999999 685.3 771.35C669.9499999999999 708.55 698.15 652.4000000000001 642.8 596.6500000000001L575.65 526.65L643.1 448.35L725.8 526.8499999999999C745.5 546.6500000000001 787.6 565.9 825.6999999999999 557.2C907.35 538.75 951.9 569.4 978.75 620.0999999999999C1002.85 665.4000000000001 998.85 760.8 995.1 785.5zM136.95 102.3499999999999C126.55 91.9 126.55 74.9 136.95 64.4500000000001L184.5 17.95C194.9 7.5 211.4 11.9000000000001 221.8 22.35L467.15 263.5500000000001L392 349.25L136.95 102.3499999999999z" />
    <glyph glyph-name="traffic-cone"
      unicode="&#xF11D;"
      horiz-adv-x="1000" d="M500 351.1C619.5 351.1 719.6 391.7000000000001 725.65 444.75C707.85 494.55 688.45 548.95 669.4 602.35C656.2 564.3 583.15 537.3000000000001 500 537.3000000000001S343.8 564.3 330.6 602.35C311.55 548.95 292.15 494.55 274.4 444.75C280.45 391.7000000000001 380.5 351.1 500 351.1zM500 686.3499999999999C556.2 686.3499999999999 608.35 703.75 623.65 730.8C602.6 789.9 584.55 840.65 573.1 872.6C565.5 893.95 531.0500000000001 905 500 905S434.5 893.95 426.9000000000001 872.6C415.5 840.65 397.4000000000001 789.9000000000001 376.35 730.8C391.6500000000001 703.75 443.85 686.3499999999999 500 686.3499999999999zM939 301.7L751.2500000000001 377.4L772.9000000000001 317.0499999999999C771.8000000000001 253.0999999999999 647.7000000000002 202.0999999999999 500.0000000000001 202.0999999999999C352.3500000000002 202.0999999999999 228.1500000000001 253.05 227.1000000000001 317.0499999999999L248.7500000000001 377.4L61 301.7C8.35 280.5 6.1 241.25 56.1 214.5L409.2000000000001 25.15C459.1 -1.6 540.85 -1.6 590.8000000000001 25.15L943.95 214.4999999999999C993.9 241.25 991.6499999999997 280.5 939 301.7z" />
  </font>
</defs>
</svg>
