<?xml version="1.0" encoding="utf-8"?>
<!-- Generator: Adobe Illustrator 25.2.3, SVG Export Plug-In . SVG Version: 6.00 Build 0)  -->
<svg version="1.1" id="Ebene_1" xmlns="http://www.w3.org/2000/svg" xmlns:xlink="http://www.w3.org/1999/xlink" x="0px" y="0px"
	 viewBox="0 0 20 20" style="enable-background:new 0 0 20 20;" xml:space="preserve">
<g>
	<path d="M19.9,0.6c-0.1-0.2-0.3-0.4-0.5-0.5C19.3,0,19.1,0,19,0h-6c-0.6,0-1,0.4-1,1s0.4,1,1,1h3.6l-5.3,5.3c-0.4,0.4-0.4,1,0,1.4
		C11.5,8.9,11.7,9,12,9s0.5-0.1,0.7-0.3L18,3.4V7c0,0.6,0.4,1,1,1s1-0.4,1-1V1C20,0.9,20,0.7,19.9,0.6z"/>
	<path d="M7.3,11.3L2,16.6V13c0-0.6-0.4-1-1-1s-1,0.4-1,1v6c0,0.1,0,0.3,0.1,0.4c0.1,0.2,0.3,0.4,0.5,0.5C0.7,20,0.9,20,1,20h6
		c0.6,0,1-0.4,1-1s-0.4-1-1-1H3.4l5.3-5.3c0.4-0.4,0.4-1,0-1.4S7.7,10.9,7.3,11.3z"/>
</g>
</svg>
