<?xml version="1.0" encoding="utf-8"?>
<!-- Generator: Adobe Illustrator 27.0.0, SVG Export Plug-In . SVG Version: 6.00 Build 0)  -->
<svg version="1.1" id="Ebene_1" xmlns="http://www.w3.org/2000/svg" xmlns:xlink="http://www.w3.org/1999/xlink" x="0px" y="0px"
	 viewBox="0 0 16.86 16.86" enable-background="new 0 0 16.86 16.86" xml:space="preserve">
<g>
	<g>
		<g>
			<path fill="#579189" d="M9.955,16.565c-0.955,0-1.732-0.755-2.004-1.89c-0.425,0.721-1.169,1.755-2.338,1.755
				c-2.509,0-3.516-6.542-3.765-8.548C1.4,4.285,2.038,1.74,3.597,0.9c0.641-0.345,1.252-0.499,1.979-0.499
				c0.155,0,0.318,0.007,0.485,0.022C6.77,0.484,7.419,0.646,7.894,0.764C8.139,0.825,8.35,0.878,8.48,0.893
				C8.593,0.9,8.735,0.905,8.88,0.905c0.353,0,0.661-0.029,0.915-0.085c0.608-0.135,1.052-0.255,1.408-0.353
				c0.514-0.14,0.854-0.233,1.215-0.233c0.129,0,0.257,0.012,0.393,0.036c2.3,0.413,2.622,4.328,2.284,6.7
				c-0.358,2.51-0.788,3.904-1.917,6.218c-0.063,0.129-0.128,0.27-0.197,0.42c-0.418,0.906-0.99,2.148-2.008,2.685
				C10.63,16.474,10.287,16.565,9.955,16.565L9.955,16.565z"/>
			<path fill="#FFFFFF" d="M12.419,0.53c0.11,0,0.389,0.004,0.508,0.025c2.135,0.383,2.219,4.453,1.929,6.492
				c-0.342,2.399-0.707,3.874-1.858,6.233c-0.435,0.892-0.935,2.178-2.023,2.752c-0.312,0.165-0.715,0.282-0.988,0.282
				c-0.987,0-1.712-1.014-1.826-2.176c0.007-0.205-0.005-0.291-0.039-0.291c-0.175,0-0.922,2.287-2.509,2.287
				c-1.758,0-2.766-4.181-3.27-8.24C1.858,3.995,2.498,1.971,3.73,1.308c0.521-0.281,1.081-0.611,1.846-0.611
				c0.145,0,0.298,0.007,0.46,0.02c1.064,0.091,1.993,0.42,2.408,0.47C8.582,1.195,8.729,1.2,8.88,1.2
				c0.325,0,0.669-0.023,0.979-0.092C11.34,0.781,11.869,0.53,12.419,0.53 M12.392,0c-0.4,0-0.672,0.065-1.208,0.212
				c-0.355,0.096-0.802,0.21-1.403,0.344C9.548,0.607,9.212,0.609,8.88,0.609c-0.121,0-0.249-0.004-0.381-0.011
				c-0.115-0.016-0.318-0.067-0.533-0.12c-0.484-0.121-1.147-0.287-1.88-0.349c-0.175-0.016-0.347-0.023-0.51-0.023
				c-0.779,0-1.433,0.165-2.119,0.534c-1.673,0.9-2.366,3.553-1.904,7.279c0.329,2.648,1.383,8.807,4.059,8.807
				c1.047,0,1.771-0.699,2.253-1.374c0.409,0.925,1.177,1.509,2.089,1.509c0.381,0,0.77-0.103,1.156-0.307
				c1.106-0.584,1.703-1.878,2.138-2.822c0.068-0.148,0.132-0.287,0.194-0.414c1.145-2.346,1.519-3.89,1.882-6.435
				c0.144-1.011,0.214-2.606-0.094-4.022c-0.484-2.226-1.566-2.671-2.396-2.82C12.683,0.013,12.538,0,12.392,0L12.392,0z"/>
		</g>
		<g>
			<g>
				<path fill="#FFFFFF" d="M6.628,13.152c-1.363,0-1.715-2.822-2.055-5.552C4.209,4.66,4.351,3.626,5.185,3.177
					c0.36-0.193,0.778-0.283,1.318-0.283l0.199,0.003c0.403,0.017,0.7,0.089,1.015,0.165l0.334,0.079
					c0.868,0.951,0.936,3.902,0.548,6.19c-0.459,2.432-1.047,3.686-1.8,3.807C6.74,13.148,6.683,13.152,6.628,13.152L6.628,13.152z"
					/>
				<path fill="#579189" d="M6.497,2.929c0.067,0,0.135,0.001,0.203,0.004C7.1,2.949,7.395,3.02,7.707,3.097
					C7.808,3.122,7.911,3.147,8.02,3.17c0.734,0.826,0.977,3.312,0.587,5.88L8.56,9.3c-0.453,2.44-1.031,3.684-1.767,3.803
					c-0.057,0.009-0.113,0.014-0.167,0.014c-1.333,0-1.697-2.933-2.018-5.52C4.246,4.674,4.384,3.649,5.202,3.209
					C5.556,3.018,5.967,2.929,6.497,2.929 M6.497,2.858c-0.489,0-0.933,0.075-1.329,0.288c-0.895,0.482-0.982,1.625-0.63,4.459
					c0.352,2.831,0.716,5.583,2.089,5.583c0.058,0,0.117-0.005,0.178-0.015c0.842-0.136,1.412-1.632,1.826-3.86
					c0,0.008,0.001,0.016,0.002,0.024c0.418-2.468,0.274-5.309-0.575-6.231c-0.46-0.099-0.81-0.222-1.355-0.244
					C6.633,2.859,6.565,2.858,6.497,2.858L6.497,2.858z"/>
			</g>
			<g>
				<path fill="#FFFFFF" d="M10.129,12.866c-0.422,0-0.821-0.253-1.018-0.646c-0.206-0.41-0.318-0.787-0.365-1.224
					C9.475,8.586,9.69,4.873,8.85,3.21c0.086,0.022,0.171,0.028,0.253,0.028c0.062,0,0.121-0.003,0.178-0.007
					c0.339-0.02,0.584-0.033,1.004-0.137c0.26-0.062,0.549-0.096,0.837-0.096c0.27,0,0.532,0.029,0.704,0.08
					c1.105,0.326,1.477,1.539,1.136,3.708c-0.403,2.566-1.251,4.341-1.854,5.452C10.891,12.638,10.535,12.866,10.129,12.866
					L10.129,12.866z"/>
				<path fill="#579189" d="M11.123,3.034c0.266,0,0.524,0.03,0.693,0.079c1.085,0.32,1.448,1.52,1.11,3.669
					c-0.402,2.559-1.248,4.33-1.85,5.44c-0.21,0.388-0.556,0.61-0.947,0.61c-0.408,0-0.795-0.246-0.986-0.627
					c-0.201-0.401-0.312-0.77-0.36-1.197C9.498,8.623,9.717,5.001,8.928,3.29c0.135-0.01,0.251-0.017,0.358-0.024
					c0.339-0.02,0.584-0.034,1.007-0.137C10.551,3.067,10.838,3.034,11.123,3.034 M11.123,2.962c-0.261,0-0.556,0.027-0.847,0.098
					C9.697,3.201,9.461,3.173,8.818,3.227c0.802,1.588,0.67,5.19-0.107,7.774c0.042,0.394,0.138,0.776,0.368,1.235
					c0.211,0.422,0.628,0.666,1.05,0.666c0.381,0,0.767-0.199,1.01-0.647c0.757-1.396,1.489-3.114,1.857-5.463
					c0.232-1.478,0.274-3.326-1.161-3.748C11.679,2.998,11.423,2.962,11.123,2.962L11.123,2.962z"/>
			</g>
		</g>
	</g>
</g>
</svg>
