<?xml version="1.0" standalone="no"?>
<!DOCTYPE svg PUBLIC "-//W3C//DTD SVG 20010904//EN"
 "http://www.w3.org/TR/2001/REC-SVG-20010904/DTD/svg10.dtd">
<svg version="1.0" xmlns="http://www.w3.org/2000/svg"
 width="700.000000pt" height="700.000000pt" viewBox="0 0 700.000000 700.000000"
 preserveAspectRatio="xMidYMid meet">
<metadata>
Created by potrace 1.14, written by Peter Selinger 2001-2017
</metadata>
<g transform="translate(0.000000,700.000000) scale(0.100000,-0.100000)"
fill="#000000" stroke="none">
<path d="M5070 6774 c-14 -2 -52 -9 -85 -15 -33 -5 -195 -46 -360 -89 -575
-152 -725 -177 -1010 -167 -139 4 -167 9 -375 60 -445 109 -646 140 -900 141
-192 0 -260 -11 -429 -73 -104 -38 -376 -178 -456 -236 -244 -174 -416 -515
-494 -980 -41 -242 -46 -329 -46 -730 1 -422 10 -555 66 -1000 216 -1724 577
-2886 1006 -3240 138 -114 261 -154 413 -135 194 23 349 107 513 279 126 132
210 255 376 547 78 138 101 147 101 39 0 -35 9 -109 19 -163 64 -330 235 -594
460 -711 198 -103 398 -93 656 34 150 73 225 130 362 278 142 152 258 350 481
817 297 624 434 972 557 1415 102 366 212 955 260 1385 50 457 36 1005 -36
1410 -68 386 -199 702 -369 893 -90 101 -231 189 -358 222 -62 15 -299 29
-352 19z m-2130 -1005 c36 -5 139 -26 229 -46 l164 -37 33 -45 c249 -339 346
-1193 243 -2129 -57 -527 -223 -1195 -377 -1524 -173 -369 -370 -499 -619
-407 -77 29 -199 151 -261 261 -184 325 -294 819 -431 1933 -107 863 -115
1275 -30 1550 71 231 216 357 489 426 143 36 378 44 560 18z m1945 -53 c183
-49 336 -175 418 -346 147 -302 153 -752 21 -1433 -127 -652 -321 -1223 -616
-1805 -116 -230 -146 -278 -211 -339 -179 -170 -427 -163 -608 17 -52 51 -76
86 -111 160 -72 151 -128 344 -128 441 0 22 11 79 25 127 89 310 169 769 211
1212 22 236 30 725 15 945 -23 338 -78 631 -157 841 -19 53 -34 97 -32 98 2 2
82 8 178 15 116 8 232 23 345 46 224 45 214 44 415 40 120 -2 194 -8 235 -19z"/>
</g>
</svg>
